# 3ds Max Wavefront OBJ Exporter v0.99 - (c)2007 guruware
# File Created: 11.03.2026 14:12:31

mtllib House.mtl

#
# object polySurface73
#

v  -0.6509 1.9619 1.9013
v  -0.6509 0.2976 1.9013
v  -1.5228 0.2976 1.9013
v  -1.5298 1.9614 1.9013
v  -0.6354 1.9596 10.0914
v  -0.6838 1.9596 10.0914
v  -0.6838 1.9257 10.0816
v  0.4255 1.9596 10.0914
v  0.4255 1.9257 10.0816
v  0.4729 1.9257 10.0816
v  0.4729 1.9596 10.0914
v  -0.6354 1.9257 10.0816
v  -0.6838 2.0676 9.7147
v  0.4255 2.0676 9.7147
v  0.4729 2.0676 9.7147
v  -0.6354 1.8570 9.7100
v  -0.6354 1.8949 10.0310
v  -0.6838 1.8949 10.0310
v  -0.6838 1.8570 9.7100
v  -0.6838 2.0337 9.7049
v  -0.6354 2.0337 9.7049
v  0.4255 2.0337 9.7049
v  0.4255 1.8570 9.7100
v  0.4729 1.8570 9.7100
v  0.4729 1.8949 10.0310
v  0.4255 1.8949 10.0310
v  0.4729 2.0337 9.7049
v  -0.5941 1.9692 9.6651
v  -0.5984 0.0184 9.6651
v  0.4117 0.0184 9.6651
v  0.4021 1.9692 9.6651
v  -3.1882 0.2976 -0.6173
v  -1.4880 0.2976 -0.6173
v  -1.4888 0.1580 -0.6173
v  -1.4897 0.0184 -0.6173
v  -3.1882 0.0184 -0.6173
v  -0.6509 0.2976 1.8566
v  1.0240 0.2976 1.8566
v  1.0240 0.2976 -0.6173
v  -1.5228 0.2976 1.8566
v  -3.1882 0.2976 1.8566
v  -0.6871 0.2976 -0.6173
v  1.0240 0.0184 1.8566
v  1.0240 0.0184 -0.6173
v  -3.1882 0.0184 1.8566
v  1.0240 0.0184 9.7166
v  0.4117 0.0184 9.7166
v  -0.5984 0.0184 9.7166
v  -3.1882 0.0184 9.7166
v  -0.6869 0.0184 -0.6173
v  -0.6870 0.1580 -0.6173
v  -0.6870 0.1580 -0.9887
v  -0.6869 0.0184 -0.9887
v  -1.4897 0.0184 -0.9887
v  -1.4888 0.1580 -0.9887
v  -0.6871 0.2976 -0.8035
v  -0.6870 0.1580 -0.8035
v  -1.4888 0.1580 -0.8035
v  -1.4880 0.2976 -0.8035
v  -1.1478 4.6418 1.5029
v  -3.7370 2.3486 1.5029
v  -3.7370 2.3486 10.0703
v  -1.0821 4.7007 1.5029
v  -1.0821 4.7007 10.0703
v  -3.6579 2.2960 1.5029
v  -3.6577 2.2962 10.0703
v  1.6045 2.3581 1.5029
v  -1.0177 4.6429 10.0703
v  1.6045 2.3581 10.0703
v  1.5237 2.2940 1.5029
v  -1.0858 4.5858 1.5029
v  -1.0856 4.5816 10.0703
v  1.5236 2.2939 10.0703
v  -2.8696 0.2592 0.4920
v  -2.8696 2.5368 0.4920
v  -2.9138 2.5368 0.4415
v  -2.9138 0.2592 0.4415
v  -2.7837 0.2592 0.5091
v  -2.7837 2.5368 0.5091
v  -2.7062 0.2592 0.4636
v  -2.7062 2.5368 0.4636
v  -2.6938 0.2592 0.3746
v  -2.6938 2.5368 0.3746
v  -2.7400 0.2592 0.2981
v  -2.7400 2.5368 0.2981
v  -2.8283 0.2592 0.2847
v  -2.8283 2.5368 0.2847
v  -2.9089 0.2592 0.3354
v  -2.9089 2.5368 0.3354
v  -3.1951 2.4024 -0.3288
v  -3.1951 2.4901 -0.3398
v  1.0573 2.4901 -0.3398
v  1.0573 2.4024 -0.3288
v  -3.1958 2.8134 1.8623
v  1.0566 2.8134 1.8623
v  -3.1958 2.7257 1.8733
v  1.0566 2.7257 1.8733
v  0.5414 0.2592 0.4920
v  0.5414 2.5368 0.4920
v  0.4972 2.5368 0.4415
v  0.4972 0.2592 0.4415
v  0.6273 0.2592 0.5091
v  0.6273 2.5368 0.5091
v  0.7048 0.2592 0.4636
v  0.7048 2.5368 0.4636
v  0.7172 0.2592 0.3746
v  0.7172 2.5368 0.3746
v  0.6709 0.2592 0.2981
v  0.6709 2.5368 0.2981
v  0.5826 0.2592 0.2847
v  0.5826 2.5368 0.2847
v  0.5020 0.2592 0.3354
v  0.5020 2.5368 0.3354
v  -0.5082 4.1201 1.8566
v  -0.0408 3.7010 1.8566
v  -0.8383 3.6972 1.8566
v  -0.8330 4.1198 1.8566
v  -1.4062 3.6949 1.8566
v  -2.1352 3.6904 1.8566
v  -1.6574 4.1189 1.8566
v  -1.4061 4.1193 1.8566
v  -1.0821 4.6347 1.8566
v  -1.5298 1.9614 1.8566
v  -0.6509 1.9619 1.8566
v  -3.1882 0.6528 1.8566
v  -3.1882 1.9604 1.8566
v  -3.1882 2.7461 1.8566
v  1.0240 2.7461 1.8566
v  1.0240 1.9629 1.8566
v  1.0240 0.6528 1.8566
v  -0.8280 3.6894 1.8608
v  -1.4168 3.6871 1.8608
v  -1.4166 4.1271 1.8608
v  -0.8224 4.1276 1.8608
v  -1.0821 4.6347 9.7166
v  -1.6517 4.1240 9.7166
v  -1.4068 4.1237 9.7166
v  -0.8395 4.1230 9.7166
v  -0.5109 4.1225 9.7166
v  1.0240 2.7461 9.7166
v  -3.1882 2.7461 9.7166
v  -3.1882 1.9692 9.7166
v  -0.5941 1.9692 9.7166
v  0.4021 1.9692 9.7166
v  1.0240 1.9692 9.7166
v  1.0240 0.6449 9.7166
v  -3.1882 0.6446 9.7166
v  -0.8363 3.7303 9.7166
v  -0.0740 3.7308 9.7166
v  -1.4101 3.7299 9.7166
v  -2.0916 3.7295 9.7166
v  -1.4101 3.7300 9.7166
v  0.4117 0.0184 9.9733
v  0.4117 0.1387 9.9733
v  -0.5984 0.1387 9.9733
v  -0.5984 0.0184 9.9733
v  0.4117 0.1387 9.7166
v  -0.5984 0.1387 9.7166
v  -1.4222 3.7238 9.7076
v  -0.8306 3.7242 9.7076
v  -0.8340 4.1290 9.7076
v  -1.4188 4.1298 9.7076
v  1.0240 0.6471 7.5336
v  1.0240 1.9675 7.5250
v  1.0240 1.9668 6.6447
v  1.0240 1.9653 4.8927
v  1.0240 1.9646 4.0038
v  1.0240 0.6480 6.6533
v  1.0240 0.6497 4.9013
v  1.0240 0.6506 4.0124
v  0.9536 1.9653 4.8927
v  0.9536 1.9646 4.0038
v  0.9536 0.6497 4.9013
v  0.9536 0.6506 4.0124
v  0.9536 1.9675 7.5250
v  0.9536 1.9668 6.6447
v  0.9536 0.6471 7.5336
v  0.9536 0.6480 6.6533
v  1.0045 1.9653 4.8927
v  1.0045 0.6497 4.9013
v  1.0045 0.6506 4.0124
v  1.0045 1.9646 4.0038
v  1.0045 1.9675 7.5250
v  1.0045 0.6471 7.5336
v  1.0045 0.6480 6.6533
v  1.0045 1.9668 6.6447
v  -3.1882 1.9628 4.0022
v  -3.1882 1.9638 4.8951
v  -3.1882 1.9657 6.6458
v  -3.1882 1.9667 7.5254
v  -3.1882 0.6506 4.0110
v  -3.1882 0.6497 4.9038
v  -3.1882 0.6478 6.6458
v  -3.1882 0.6469 7.5253
v  -3.1098 1.9657 6.6458
v  -3.1098 1.9667 7.5254
v  -3.1098 0.6478 6.6458
v  -3.1098 0.6469 7.5253
v  -3.1098 1.9628 4.0022
v  -3.1098 1.9638 4.8951
v  -3.1098 0.6506 4.0110
v  -3.1098 0.6497 4.9038
v  -3.1802 1.9657 6.6458
v  -3.1802 0.6478 6.6458
v  -3.1802 0.6469 7.5253
v  -3.1802 1.9667 7.5254
v  -3.1802 1.9638 4.8951
v  -3.1802 1.9628 4.0022
v  -3.1802 0.6506 4.0110
v  -3.1802 0.6497 4.9038
# 210 vertices

vn 0.0000 -0.0000 -1.0000
vn 0.0000 -0.2756 0.9613
vn 0.0000 -0.6071 0.7946
vn 0.0000 0.9613 0.2756
vn 0.0000 -0.9931 0.1174
vn -1.0000 0.0000 0.0000
vn 0.0000 -0.9613 -0.2756
vn 0.0000 -0.0011 -1.0000
vn 1.0000 -0.0000 0.0000
vn 0.0000 -0.8550 0.5186
vn -1.0000 0.0000 -0.0000
vn 0.0000 -0.8550 0.5187
vn 0.0000 0.2756 -0.9613
vn -0.0000 0.0000 1.0000
vn 0.0000 0.0000 -1.0000
vn -0.0000 1.0000 -0.0000
vn 1.0000 0.0000 0.0000
vn 0.0000 -1.0000 0.0000
vn -0.7071 0.0000 0.7071
vn 0.0000 -1.0000 -0.0000
vn 0.0000 0.0000 1.0000
vn 0.0000 1.0000 0.0000
vn 1.0000 0.0007 0.0000
vn -1.0000 0.0064 0.0000
vn -0.6631 0.7485 -0.0000
vn -0.5527 -0.8334 0.0000
vn 0.6572 0.7537 0.0001
vn -0.0000 0.0000 -1.0000
vn 0.6217 -0.7833 -0.0000
vn -0.6596 -0.7516 -0.0002
vn 0.6646 -0.7472 -0.0002
vn -0.5003 0.0000 0.8658
vn -0.9438 0.0000 0.3304
vn 0.1666 0.0000 0.9860
vn 0.8315 0.0000 0.5556
vn 0.9795 0.0000 -0.2014
vn 0.5556 0.0000 -0.8315
vn -0.2038 0.0000 -0.9790
vn -0.8642 0.0000 -0.5032
vn -0.0000 1.0000 0.0000
vn 0.0000 -0.1247 -0.9922
vn 0.0000 0.9894 -0.1453
vn 0.0000 0.1247 0.9922
vn 0.0000 -0.9894 0.1453
vn -1.0000 -0.0000 -0.0003
vn 1.0000 0.0000 0.0003
vn -0.0000 -0.0000 -1.0000
vn 1.0000 0.0042 0.0000
vn -1.0000 -0.0000 0.0000
vn 0.0006 -1.0000 0.0000
vn 0.0000 -0.0000 1.0000
vn 1.0000 -0.0022 0.0000
vn -1.0000 -0.0049 0.0000
vn -0.0000 -0.0000 1.0000
vn -0.0000 -1.0000 -0.0000
vn 1.0000 -0.0000 -0.0000
vn 0.0000 -1.0000 0.0008
vn 0.0000 -0.0065 -1.0000
vn 0.0000 1.0000 0.0010
vn -0.0000 0.0066 1.0000
vn 0.0000 0.0065 1.0000
vn -1.0000 -0.0000 -0.0000
vn 0.0000 -1.0000 0.0011
vn 0.0000 0.0067 1.0000
vn 0.0000 -0.0066 -1.0000
# 65 vertex normals

vt 0.2802 0.1167 0.0000
vt 0.2802 0.0170 0.0000
vt 0.3349 0.0168 0.0000
vt 0.3354 0.1165 0.0000
vt 0.1207 0.9225 0.0000
vt 0.1207 0.9310 0.0000
vt 0.1148 0.9310 0.0000
vt 0.1207 0.7368 0.0000
vt 0.1148 0.7368 0.0000
vt 0.1148 0.7285 0.0000
vt 0.1207 0.7285 0.0000
vt 0.1148 0.9225 0.0000
vt 0.1885 0.9310 0.0000
vt 0.1225 0.9310 0.0000
vt 0.1885 0.7368 0.0000
vt 0.1225 0.7368 0.0000
vt 0.1225 0.7285 0.0000
vt 0.1885 0.7285 0.0000
vt 0.1225 0.9225 0.0000
vt 0.2405 0.9216 0.0000
vt 0.2405 0.9778 0.0000
vt 0.2320 0.9778 0.0000
vt 0.2320 0.9216 0.0000
vt 0.3211 0.9047 0.0000
vt 0.3095 0.8371 0.0000
vt 0.3156 0.8360 0.0000
vt 0.3336 0.8954 0.0000
vt 0.3463 0.8403 0.0000
vt 0.3272 0.9037 0.0000
vt 0.1900 0.9142 0.0000
vt 0.1900 0.7285 0.0000
vt 0.2559 0.7285 0.0000
vt 0.2559 0.9142 0.0000
vt 0.2166 0.9218 0.0000
vt 0.2249 0.9218 0.0000
vt 0.2249 0.9780 0.0000
vt 0.2166 0.9780 0.0000
vt 0.0768 0.7368 0.0000
vt 0.0709 0.7285 0.0000
vt 0.0768 0.7285 0.0000
vt 0.1078 0.7285 0.0000
vt 0.1078 0.7368 0.0000
vt 0.2949 0.9846 0.0000
vt 0.2985 0.9161 0.0000
vt 0.3057 0.9235 0.0000
vt 0.3248 0.9768 0.0000
vt 0.1094 0.9310 0.0000
vt 0.1094 0.9225 0.0000
vt 0.2849 0.9845 0.0000
vt 0.2546 0.9779 0.0000
vt 0.2716 0.9239 0.0000
vt 0.2785 0.9161 0.0000
vt 0.2735 0.8925 0.0000
vt 0.2669 0.8363 0.0000
vt 0.2978 0.8354 0.0000
vt 0.3038 0.8372 0.0000
vt 0.2849 0.9031 0.0000
vt 0.2789 0.9014 0.0000
vt 0.1094 0.7368 0.0000
vt 0.1094 0.7285 0.0000
vt 0.0768 0.9225 0.0000
vt 0.0709 0.9310 0.0000
vt 0.0709 0.7368 0.0000
vt 0.1078 0.9225 0.0000
vt 0.1078 0.9310 0.0000
vt 0.0768 0.9310 0.0000
vt 0.3401 0.1169 0.0000
vt 0.3399 0.0171 0.0000
vt 0.3950 0.0171 0.0000
vt 0.3945 0.1169 0.0000
vt 0.8561 0.8997 0.0000
vt 0.8561 0.8508 0.0000
vt 0.8601 0.8509 0.0000
vt 0.8641 0.8509 0.0000
vt 0.8641 0.8997 0.0000
vt 0.8507 0.7770 0.0000
vt 0.8507 0.7289 0.0000
vt 0.9217 0.7289 0.0000
vt 0.8507 0.8020 0.0000
vt 0.8507 0.8498 0.0000
vt 0.9217 0.7780 0.0000
vt 0.9217 0.8010 0.0000
vt 0.9217 0.8498 0.0000
vt 0.8752 0.9219 0.0000
vt 0.8752 0.8508 0.0000
vt 0.8832 0.8508 0.0000
vt 0.8832 0.9219 0.0000
vt 0.7277 0.7289 0.0000
vt 0.8487 0.7289 0.0000
vt 0.8487 0.9546 0.0000
vt 0.8311 0.9546 0.0000
vt 0.8021 0.9546 0.0000
vt 0.7277 0.9546 0.0000
vt 0.8927 0.8508 0.0000
vt 0.8927 0.9219 0.0000
vt 0.8847 0.9219 0.0000
vt 0.8847 0.8508 0.0000
vt 0.9760 0.9718 0.0000
vt 0.9049 0.9718 0.0000
vt 0.9049 0.9230 0.0000
vt 0.9049 0.9000 0.0000
vt 0.9049 0.8508 0.0000
vt 0.9760 0.8508 0.0000
vt 0.9289 0.7289 0.0000
vt 0.9369 0.7289 0.0000
vt 0.9369 0.8498 0.0000
vt 0.9289 0.8498 0.0000
vt 0.8656 0.8508 0.0000
vt 0.8736 0.8508 0.0000
vt 0.8736 0.9000 0.0000
vt 0.8696 0.9000 0.0000
vt 0.8656 0.9000 0.0000
vt 0.8505 0.8508 0.0000
vt 0.8545 0.8508 0.0000
vt 0.8545 0.8739 0.0000
vt 0.8505 0.8739 0.0000
vt 0.8259 0.9556 0.0000
vt 0.8299 0.9556 0.0000
vt 0.8299 0.9786 0.0000
vt 0.8259 0.9786 0.0000
vt 0.8383 0.9556 0.0000
vt 0.8490 0.9556 0.0000
vt 0.8490 0.9786 0.0000
vt 0.8383 0.9786 0.0000
vt 0.8204 0.9663 0.0000
vt 0.8204 0.9556 0.0000
vt 0.8244 0.9556 0.0000
vt 0.8244 0.9663 0.0000
vt 0.8943 0.9230 0.0000
vt 0.8943 0.9000 0.0000
vt 0.8188 0.9556 0.0000
vt 0.8188 0.9663 0.0000
vt 0.8148 0.9663 0.0000
vt 0.8148 0.9556 0.0000
vt 0.9271 0.7780 0.0000
vt 0.9271 0.8010 0.0000
vt 0.8093 0.9610 0.0000
vt 0.8093 0.9556 0.0000
vt 0.8133 0.9556 0.0000
vt 0.8133 0.9610 0.0000
vt 0.8368 0.9786 0.0000
vt 0.8315 0.9786 0.0000
vt 0.8315 0.9556 0.0000
vt 0.8368 0.9556 0.0000
vt 0.8078 0.9556 0.0000
vt 0.8078 0.9610 0.0000
vt 0.8038 0.9610 0.0000
vt 0.8038 0.9556 0.0000
vt 0.0560 0.6093 0.0000
vt 0.0562 0.4334 0.0000
vt 0.2399 0.4336 0.0000
vt 0.0560 0.6138 0.0000
vt 0.2397 0.6139 0.0000
vt 0.0562 0.4300 0.0000
vt 0.2399 0.4301 0.0000
vt 0.4626 0.4353 0.0000
vt 0.4628 0.6135 0.0000
vt 0.2791 0.6134 0.0000
vt 0.2791 0.6090 0.0000
vt 0.2789 0.4352 0.0000
vt 0.4304 0.0198 0.0000
vt 0.4323 0.0165 0.0000
vt 0.4923 0.1336 0.0000
vt 0.4937 0.1364 0.0000
vt 0.4922 0.1394 0.0000
vt 0.5857 0.0184 0.0000
vt 0.5875 0.0158 0.0000
vt 0.6467 0.1326 0.0000
vt 0.6482 0.1357 0.0000
vt 0.6468 0.1387 0.0000
vt 0.7067 0.0160 0.0000
vt 0.7086 0.0193 0.0000
vt 0.5515 0.0172 0.0000
vt 0.5533 0.0199 0.0000
vt 0.4626 0.4297 0.0000
vt 0.2789 0.4296 0.0000
vt 0.5795 0.6265 0.0000
vt 0.5795 0.4218 0.0000
vt 0.6419 0.4218 0.0000
vt 0.6419 0.6265 0.0000
vt 0.5181 0.6265 0.0000
vt 0.5181 0.4218 0.0000
vt 0.5593 0.7294 0.0000
vt 0.5593 0.9432 0.0000
vt 0.5551 0.9432 0.0000
vt 0.5551 0.7294 0.0000
vt 0.5674 0.7294 0.0000
vt 0.5674 0.9432 0.0000
vt 0.5746 0.7294 0.0000
vt 0.5746 0.9432 0.0000
vt 0.5845 0.7294 0.0000
vt 0.5845 0.9432 0.0000
vt 0.5762 0.9432 0.0000
vt 0.5762 0.7294 0.0000
vt 0.5917 0.7294 0.0000
vt 0.5917 0.9432 0.0000
vt 0.6008 0.9432 0.0000
vt 0.6008 0.7294 0.0000
vt 0.6091 0.7294 0.0000
vt 0.6091 0.9432 0.0000
vt 0.5933 0.9432 0.0000
vt 0.5933 0.7294 0.0000
vt 0.6203 0.7294 0.0000
vt 0.6203 0.9432 0.0000
vt 0.6104 0.9432 0.0000
vt 0.6104 0.7294 0.0000
vt 0.6221 0.7341 0.0000
vt 0.6297 0.7294 0.0000
vt 0.6380 0.7306 0.0000
vt 0.6258 0.7488 0.0000
vt 0.6423 0.7378 0.0000
vt 0.6411 0.7462 0.0000
vt 0.6339 0.7504 0.0000
vt 0.6216 0.7441 0.0000
vt 0.6480 0.7310 0.0000
vt 0.6560 0.7294 0.0000
vt 0.6633 0.7336 0.0000
vt 0.6601 0.7492 0.0000
vt 0.6645 0.7420 0.0000
vt 0.6518 0.7504 0.0000
vt 0.6443 0.7457 0.0000
vt 0.6438 0.7357 0.0000
vt 0.9324 0.6227 0.0000
vt 0.9281 0.6227 0.0000
vt 0.9281 0.4171 0.0000
vt 0.9324 0.4171 0.0000
vt 0.8124 0.6227 0.0000
vt 0.7059 0.6227 0.0000
vt 0.7059 0.4171 0.0000
vt 0.8124 0.4171 0.0000
vt 0.9265 0.6227 0.0000
vt 0.9222 0.6227 0.0000
vt 0.9222 0.4171 0.0000
vt 0.9265 0.4171 0.0000
vt 0.9206 0.6227 0.0000
vt 0.8141 0.6227 0.0000
vt 0.8141 0.4171 0.0000
vt 0.9206 0.4171 0.0000
vt 0.9437 0.4139 0.0000
vt 0.9480 0.4139 0.0000
vt 0.9478 0.5214 0.0000
vt 0.9435 0.5215 0.0000
vt 0.9438 0.5247 0.0000
vt 0.9481 0.5248 0.0000
vt 0.9483 0.6324 0.0000
vt 0.9440 0.6323 0.0000
vt 0.4277 0.7291 0.0000
vt 0.4277 0.9429 0.0000
vt 0.4235 0.9429 0.0000
vt 0.4235 0.7291 0.0000
vt 0.4357 0.7291 0.0000
vt 0.4357 0.9429 0.0000
vt 0.4430 0.7291 0.0000
vt 0.4430 0.9429 0.0000
vt 0.4529 0.7291 0.0000
vt 0.4529 0.9429 0.0000
vt 0.4445 0.9429 0.0000
vt 0.4445 0.7291 0.0000
vt 0.4601 0.7291 0.0000
vt 0.4601 0.9429 0.0000
vt 0.4805 0.9429 0.0000
vt 0.4805 0.7291 0.0000
vt 0.4888 0.7291 0.0000
vt 0.4888 0.9429 0.0000
vt 0.4729 0.9429 0.0000
vt 0.4729 0.7291 0.0000
vt 0.4716 0.7291 0.0000
vt 0.4716 0.9429 0.0000
vt 0.4616 0.9429 0.0000
vt 0.4616 0.7291 0.0000
vt 0.4905 0.7338 0.0000
vt 0.4980 0.7291 0.0000
vt 0.5063 0.7303 0.0000
vt 0.4942 0.7485 0.0000
vt 0.5107 0.7375 0.0000
vt 0.5095 0.7459 0.0000
vt 0.5022 0.7501 0.0000
vt 0.4900 0.7438 0.0000
vt 0.5163 0.7307 0.0000
vt 0.5244 0.7291 0.0000
vt 0.5317 0.7333 0.0000
vt 0.5285 0.7489 0.0000
vt 0.5328 0.7417 0.0000
vt 0.5202 0.7501 0.0000
vt 0.5126 0.7454 0.0000
vt 0.5122 0.7354 0.0000
vt 0.6662 0.3681 0.0000
vt 0.6909 0.3466 0.0000
vt 0.6488 0.3464 0.0000
vt 0.6491 0.3681 0.0000
vt 0.6188 0.3463 0.0000
vt 0.5803 0.3461 0.0000
vt 0.6055 0.3681 0.0000
vt 0.6188 0.3681 0.0000
vt 0.6359 0.3945 0.0000
vt 0.6123 0.2574 0.0000
vt 0.6126 0.1720 0.0000
vt 0.6587 0.1720 0.0000
vt 0.6587 0.2574 0.0000
vt 0.5247 0.1720 0.0000
vt 0.5247 0.1903 0.0000
vt 0.5247 0.2573 0.0000
vt 0.5247 0.2976 0.0000
vt 0.7472 0.2976 0.0000
vt 0.7472 0.2575 0.0000
vt 0.7472 0.1903 0.0000
vt 0.7472 0.1720 0.0000
vt 0.8678 0.3906 0.0000
vt 0.8377 0.3660 0.0000
vt 0.8507 0.3660 0.0000
vt 0.8806 0.3659 0.0000
vt 0.8980 0.3659 0.0000
vt 0.9791 0.2996 0.0000
vt 0.7566 0.2996 0.0000
vt 0.7566 0.2621 0.0000
vt 0.8936 0.2621 0.0000
vt 0.9462 0.2621 0.0000
vt 0.9791 0.2621 0.0000
vt 0.9467 0.1681 0.0000
vt 0.9791 0.1681 0.0000
vt 0.9791 0.1983 0.0000
vt 0.7566 0.1983 0.0000
vt 0.7566 0.1681 0.0000
vt 0.8934 0.1681 0.0000
vt 0.8808 0.3470 0.0000
vt 0.9211 0.3470 0.0000
vt 0.8505 0.3470 0.0000
vt 0.8145 0.3470 0.0000
vt 0.9467 0.1739 0.0000
vt 0.8934 0.1739 0.0000
vt 0.8578 0.1184 0.0000
vt 0.8578 0.0944 0.0000
vt 0.9534 0.0944 0.0000
vt 0.9534 0.1184 0.0000
vt 0.8500 0.3470 0.0000
vt 0.8803 0.3470 0.0000
vt 0.8801 0.3659 0.0000
vt 0.8501 0.3660 0.0000
vt 0.2672 0.2869 0.0000
vt 0.2672 0.2065 0.0000
vt 0.3328 0.2067 0.0000
vt 0.3330 0.2868 0.0000
vt 0.5032 0.3341 0.0000
vt 0.2672 0.3341 0.0000
vt 0.3594 0.2868 0.0000
vt 0.4120 0.2867 0.0000
vt 0.4387 0.2866 0.0000
vt 0.5032 0.2865 0.0000
vt 0.2672 0.1685 0.0000
vt 0.3592 0.2067 0.0000
vt 0.4118 0.2068 0.0000
vt 0.5032 0.1854 0.0000
vt 0.5032 0.1685 0.0000
vt 0.4385 0.2069 0.0000
vt 0.5032 0.2070 0.0000
vt 0.0144 0.3353 0.0000
vt 0.2503 0.3353 0.0000
vt 0.2503 0.2876 0.0000
vt 0.1859 0.2877 0.0000
vt 0.1591 0.2878 0.0000
vt 0.1066 0.2879 0.0000
vt 0.0801 0.2880 0.0000
vt 0.0144 0.2881 0.0000
vt 0.1857 0.2081 0.0000
vt 0.2503 0.2082 0.0000
vt 0.2503 0.1867 0.0000
vt 0.1589 0.2080 0.0000
vt 0.1066 0.2079 0.0000
vt 0.0801 0.2079 0.0000
vt 0.0144 0.2077 0.0000
vt 0.2503 0.1697 0.0000
vt 0.0144 0.1697 0.0000
# 372 texture coords

o polySurface73
g polySurface73
usemtl lambert13SG
s off
f 1/1/1 2/2/1 3/3/1 4/4/1 
s 1
f 5/5/2 6/6/2 7/7/3 8/8/2 
f 9/9/3 10/10/3 11/11/2 12/12/3 
f 7/7/3 12/12/3 11/11/2 8/8/2 
s off
f 13/13/4 6/14/4 14/15/4 
f 8/16/4 11/17/4 15/18/4 5/19/4 
f 6/14/4 5/19/4 15/18/4 14/15/4 
f 16/20/5 17/21/5 18/22/5 19/23/5 
f 6/24/6 13/25/6 20/26/6 18/27/6 
f 20/26/6 19/28/6 18/27/6 
f 7/29/6 6/24/6 18/27/6 
f 21/30/7 22/31/7 9/32/7 12/33/7 
f 23/34/5 24/35/5 25/36/5 26/37/5 
f 22/38/8 15/39/8 27/40/8 24/41/8 
f 22/38/8 24/41/8 23/42/8 
f 21/43/9 12/44/9 17/45/9 16/46/9 
s 1
f 7/7/3 18/47/10 17/48/10 12/12/3 
s off
f 22/49/11 23/50/11 26/51/11 9/52/11 
f 25/53/9 24/54/9 27/55/9 15/56/9 
f 25/53/9 15/56/9 11/57/9 10/58/9 
s 1
f 9/9/3 26/59/12 25/60/12 10/10/3 
s off
f 21/61/13 13/62/13 14/63/13 
f 21/61/13 14/63/13 15/39/13 22/38/13 
f 21/61/8 16/64/8 19/65/8 20/66/8 
f 21/61/8 20/66/8 13/62/8 
f 28/67/14 29/68/14 30/69/14 31/70/14 
f 32/71/15 33/72/15 34/73/15 35/74/15 
f 32/71/15 35/74/15 36/75/15 
s 2
f 37/76/16 38/77/16 39/78/16 40/79/16 
f 41/80/16 40/79/16 39/78/16 42/81/16 
f 41/80/16 42/81/16 33/82/16 32/83/16 
s off
f 43/84/17 44/85/17 39/86/17 38/87/17 
f 45/88/18 43/89/18 46/90/18 47/91/18 
f 45/88/18 47/91/18 48/92/18 49/93/18 
s 3
f 41/94/19 32/95/6 36/96/6 45/97/19 
s 4
f 45/98/20 36/99/20 35/100/20 50/101/20 
f 45/98/20 50/101/20 44/102/20 43/103/20 
s 3
f 43/104/21 38/105/21 41/106/19 
f 41/106/19 45/107/19 43/104/21 
s off
f 39/108/15 44/109/15 50/110/15 51/111/15 
f 42/112/15 39/108/15 51/111/15 
f 52/113/15 53/114/15 54/115/15 55/116/15 
f 56/117/15 57/118/15 58/119/15 59/120/15 
f 51/121/22 52/122/22 55/123/22 34/124/22 
f 50/125/23 53/126/23 52/127/23 51/128/23 
s 4
f 35/100/20 54/129/18 53/130/18 50/101/20 
s off
f 34/131/24 55/132/24 54/133/24 35/134/24 
s 2
f 42/81/16 56/135/22 59/136/22 33/82/16 
s off
f 51/137/23 57/138/23 56/139/23 42/140/23 
f 34/141/18 58/142/18 57/143/18 51/144/18 
f 33/145/24 59/146/24 58/147/24 34/148/24 
f 60/149/25 61/150/25 62/151/25 63/152/25 
f 63/152/25 62/151/25 64/153/25 
f 65/154/26 66/155/26 62/151/26 61/150/26 
f 67/156/27 63/157/27 64/158/27 68/159/27 
f 67/156/27 68/159/27 69/160/27 
f 67/161/28 70/162/28 71/163/28 60/164/28 
f 63/165/28 67/161/28 60/164/28 
f 62/166/21 66/167/21 72/168/21 68/169/21 
f 64/170/21 62/166/21 68/169/21 
f 68/169/21 72/168/21 73/171/21 69/172/21 
f 60/164/15 71/163/15 65/173/15 61/174/15 
f 70/175/29 67/156/29 69/160/29 73/176/29 
f 72/177/30 71/178/30 70/179/30 73/180/30 
f 72/177/31 66/181/31 65/182/31 71/178/31 
s 5
f 74/183/32 75/184/32 76/185/33 77/186/33 
f 78/187/34 79/188/34 75/184/32 74/183/32 
f 80/189/35 81/190/35 79/188/34 78/187/34 
f 82/191/36 83/192/36 81/193/35 80/194/35 
f 84/195/37 85/196/37 83/192/36 82/191/36 
f 86/197/38 87/198/38 85/199/37 84/200/37 
f 88/201/39 89/202/39 87/198/38 86/197/38 
f 77/203/33 76/204/33 89/205/39 88/206/39 
s off
f 88/207/20 86/208/20 84/209/20 74/210/20 
f 84/209/20 82/211/20 80/212/20 74/210/20 
f 80/212/20 78/213/20 74/210/20 
f 77/214/20 88/207/20 74/210/20 
f 75/215/40 79/216/40 81/217/40 85/218/40 
f 81/217/40 83/219/40 85/218/40 
f 85/218/40 87/220/40 89/221/40 75/215/40 
f 76/222/40 75/215/40 89/221/40 
f 90/223/41 91/224/41 92/225/41 93/226/41 
f 91/227/42 94/228/42 95/229/42 92/230/42 
f 94/231/43 96/232/43 97/233/43 95/234/43 
f 96/235/44 90/236/44 93/237/44 97/238/44 
f 96/239/45 94/240/45 91/241/45 90/242/45 
f 93/243/46 92/244/46 95/245/46 97/246/46 
s 6
f 98/247/32 99/248/32 100/249/33 101/250/33 
f 102/251/34 103/252/34 99/248/32 98/247/32 
f 104/253/35 105/254/35 103/252/34 102/251/34 
f 106/255/36 107/256/36 105/257/35 104/258/35 
f 108/259/37 109/260/37 107/256/36 106/255/36 
f 110/261/38 111/262/38 109/263/37 108/264/37 
f 112/265/39 113/266/39 111/262/38 110/261/38 
f 101/267/33 100/268/33 113/269/39 112/270/39 
s off
f 112/271/20 110/272/20 108/273/20 98/274/20 
f 108/273/20 106/275/20 104/276/20 98/274/20 
f 104/276/20 102/277/20 98/274/20 
f 101/278/20 112/271/20 98/274/20 
f 99/279/40 103/280/40 105/281/40 109/282/40 
f 105/281/40 107/283/40 109/282/40 
f 109/282/40 111/284/40 113/285/40 99/279/40 
f 100/286/40 99/279/40 113/285/40 
f 114/287/47 115/288/47 116/289/47 117/290/47 
f 118/291/28 119/292/28 120/293/28 121/294/28 
f 122/295/28 114/287/28 117/290/28 121/294/28 
f 122/295/28 121/294/28 120/293/28 
f 123/296/48 4/296/48 3/297/48 40/297/48 
f 40/297/22 3/297/22 2/298/22 37/298/22 
f 37/298/49 2/298/49 1/299/49 124/299/49 
f 124/299/50 1/299/50 4/296/50 123/296/50 
f 123/296/15 40/297/15 41/300/15 125/301/15 
f 126/302/15 123/296/15 125/301/15 
f 127/303/15 128/304/15 129/305/15 124/299/15 
f 127/303/15 124/299/15 123/296/15 126/302/15 
f 124/299/15 129/305/15 130/306/15 38/307/15 
f 124/299/15 38/307/15 37/298/15 
f 128/304/15 127/303/15 119/292/15 116/289/15 
f 119/292/15 118/291/15 116/289/15 
f 115/288/15 128/304/15 116/289/15 
f 131/289/28 132/291/28 133/294/28 134/290/28 
f 135/308/21 136/309/21 137/310/21 138/311/21 
f 135/308/21 138/311/21 139/312/21 
f 140/313/21 141/314/21 142/315/21 143/316/21 
f 140/313/21 143/316/21 144/317/21 145/318/21 
f 144/317/21 47/319/21 46/320/21 146/321/21 
f 145/318/21 144/317/21 146/321/21 
f 143/316/51 142/315/51 147/322/51 49/323/51 
f 143/316/51 49/323/51 48/324/51 
f 143/316/18 28/316/18 31/317/18 144/317/18 
f 48/324/52 29/324/52 28/316/52 143/316/52 
f 144/317/53 31/317/53 30/319/53 47/319/53 
f 148/325/54 149/326/54 139/312/54 138/311/54 
f 141/314/14 140/313/14 149/326/14 148/325/14 
f 141/314/14 148/325/14 150/327/14 151/328/14 
f 136/309/14 151/328/14 152/327/14 137/310/14 
f 153/319/21 154/329/21 155/330/21 156/324/21 
f 47/319/55 153/319/55 156/324/55 48/324/55 
f 157/329/17 154/329/17 153/319/17 47/319/17 
f 158/331/22 155/332/22 154/333/22 157/334/22 
f 48/324/6 156/324/6 155/330/6 158/330/6 
f 159/335/21 160/336/21 161/337/21 162/338/21 
f 145/339/56 146/340/56 163/341/56 164/342/56 
f 128/343/56 140/344/56 145/339/56 164/342/56 
f 128/343/56 164/342/56 165/345/56 166/346/56 
f 128/343/56 166/346/56 167/347/56 129/348/56 
f 163/341/17 146/340/17 46/349/17 168/350/17 
f 169/351/17 168/350/17 46/349/17 38/352/17 
f 46/349/17 43/353/17 38/352/17 
f 170/354/17 169/351/17 38/352/17 130/355/17 
f 167/347/56 170/354/56 130/355/56 129/348/56 
f 165/345/56 168/350/56 169/351/56 166/346/56 
f 166/346/57 171/346/57 172/347/57 167/347/57 
f 169/351/58 173/351/58 171/346/58 166/346/58 
f 170/354/59 174/354/59 173/351/59 169/351/59 
f 167/347/60 172/347/60 174/354/60 170/354/60 
f 164/342/57 175/342/57 176/345/57 165/345/57 
f 163/341/58 177/341/58 175/342/58 164/342/58 
f 168/350/59 178/350/59 177/341/59 163/341/59 
f 165/345/61 176/345/61 178/350/61 168/350/61 
f 179/346/9 180/351/9 181/354/9 182/347/9 
f 183/342/9 184/341/9 185/350/9 186/345/9 
f 141/356/6 127/357/6 126/358/6 187/359/6 
f 141/356/6 187/359/6 188/360/6 189/361/6 
f 141/356/6 189/361/6 190/362/6 142/363/6 
f 191/364/6 125/365/6 41/366/6 192/367/6 
f 193/368/6 192/367/6 41/366/6 194/369/6 
f 147/370/6 194/369/6 41/366/6 45/371/6 
f 147/370/6 45/371/6 49/372/6 
f 126/358/49 125/365/49 191/364/49 187/359/49 
f 190/362/49 194/369/49 147/370/49 142/363/49 
f 188/360/62 192/367/62 193/368/62 189/361/62 
f 189/361/63 195/361/63 196/362/63 190/362/63 
f 193/368/21 197/368/21 195/361/21 189/361/21 
f 194/369/59 198/369/59 197/368/59 193/368/59 
f 190/362/15 196/362/15 198/369/15 194/369/15 
f 187/359/63 199/359/63 200/360/63 188/360/63 
f 191/364/64 201/364/64 199/359/64 187/359/64 
f 192/367/59 202/367/59 201/364/59 191/364/59 
f 188/360/65 200/360/65 202/367/65 192/367/65 
f 203/361/6 204/368/6 205/369/6 206/362/6 
f 207/360/6 208/359/6 209/364/6 210/367/6 
# 150 polygons - 32 triangles

